<mxfile host="Electron" modified="2024-05-01T13:09:59.490Z" agent="Mozilla/5.0 (Windows NT 10.0; Win64; x64) AppleWebKit/537.36 (KHTML, like Gecko) draw.io/24.2.5 Chrome/120.0.6099.109 Electron/28.1.0 Safari/537.36" etag="GzWq9wNTc-GywKY4CmsO" version="24.2.5" type="device">
  <diagram name="Page-1" id="QMDHpE79dYfYAJZwSF09">
    <mxGraphModel dx="1560" dy="2092" grid="1" gridSize="10" guides="1" tooltips="1" connect="1" arrows="1" fold="1" page="1" pageScale="1" pageWidth="850" pageHeight="1100" math="0" shadow="0">
      <root>
        <mxCell id="0" />
        <mxCell id="1" parent="0" />
        <mxCell id="ZLyVGKCCBGNe5Eu13ANb-1" value="Admin" style="shape=umlActor;verticalLabelPosition=bottom;verticalAlign=top;html=1;outlineConnect=0;fillColor=#7DD4FF;" parent="1" vertex="1">
          <mxGeometry x="50" y="80" width="40" height="80" as="geometry" />
        </mxCell>
        <mxCell id="ZLyVGKCCBGNe5Eu13ANb-2" value="User&lt;div&gt;(Buyer)&lt;/div&gt;" style="shape=umlActor;verticalLabelPosition=bottom;verticalAlign=top;html=1;outlineConnect=0;fillColor=#7DD4FF;" parent="1" vertex="1">
          <mxGeometry x="860" y="70" width="40" height="80" as="geometry" />
        </mxCell>
        <mxCell id="ZLyVGKCCBGNe5Eu13ANb-4" value="Seller" style="shape=umlActor;verticalLabelPosition=bottom;verticalAlign=top;html=1;outlineConnect=0;fillColor=#7DD4FF;" parent="1" vertex="1">
          <mxGeometry x="910" y="350" width="40" height="80" as="geometry" />
        </mxCell>
        <mxCell id="ZLyVGKCCBGNe5Eu13ANb-6" value="Login" style="ellipse;whiteSpace=wrap;html=1;fillColor=#00CC66;" parent="1" vertex="1">
          <mxGeometry x="470" y="-150" width="115" height="70" as="geometry" />
        </mxCell>
        <mxCell id="ZLyVGKCCBGNe5Eu13ANb-7" value="Logout" style="ellipse;whiteSpace=wrap;html=1;fillColor=#FF6666;" parent="1" vertex="1">
          <mxGeometry x="520" y="750" width="115" height="70" as="geometry" />
        </mxCell>
        <mxCell id="ZLyVGKCCBGNe5Eu13ANb-11" value="Check item list" style="ellipse;whiteSpace=wrap;html=1;fillColor=#99CCFF;" parent="1" vertex="1">
          <mxGeometry x="190" y="90" width="180" height="40" as="geometry" />
        </mxCell>
        <mxCell id="ZLyVGKCCBGNe5Eu13ANb-12" value="Add/delete seller" style="ellipse;whiteSpace=wrap;html=1;fillColor=#99CCFF;" parent="1" vertex="1">
          <mxGeometry x="190" y="140" width="180" height="40" as="geometry" />
        </mxCell>
        <mxCell id="ZLyVGKCCBGNe5Eu13ANb-13" value="Delete item" style="ellipse;whiteSpace=wrap;html=1;fillColor=#99CCFF;" parent="1" vertex="1">
          <mxGeometry x="190" y="190" width="180" height="40" as="geometry" />
        </mxCell>
        <mxCell id="ZLyVGKCCBGNe5Eu13ANb-14" value="Block user" style="ellipse;whiteSpace=wrap;html=1;fillColor=#99CCFF;" parent="1" vertex="1">
          <mxGeometry x="190" y="250" width="180" height="40" as="geometry" />
        </mxCell>
        <mxCell id="ZLyVGKCCBGNe5Eu13ANb-16" value="Select Product" style="ellipse;whiteSpace=wrap;html=1;fillColor=#99FFFF;" parent="1" vertex="1">
          <mxGeometry x="480" y="80" width="180" height="40" as="geometry" />
        </mxCell>
        <mxCell id="ZLyVGKCCBGNe5Eu13ANb-17" value="Payment" style="ellipse;whiteSpace=wrap;html=1;fillColor=#99FFFF;" parent="1" vertex="1">
          <mxGeometry x="480" y="180" width="180" height="40" as="geometry" />
        </mxCell>
        <mxCell id="ZLyVGKCCBGNe5Eu13ANb-18" value="Add to cart" style="ellipse;whiteSpace=wrap;html=1;fillColor=#99FFFF;" parent="1" vertex="1">
          <mxGeometry x="480" y="130" width="180" height="40" as="geometry" />
        </mxCell>
        <mxCell id="ZLyVGKCCBGNe5Eu13ANb-19" value="Order Placed" style="ellipse;whiteSpace=wrap;html=1;fillColor=#99FFFF;" parent="1" vertex="1">
          <mxGeometry x="480" y="230" width="180" height="40" as="geometry" />
        </mxCell>
        <mxCell id="ZLyVGKCCBGNe5Eu13ANb-20" value="Track delivery" style="ellipse;whiteSpace=wrap;html=1;fillColor=#99FFFF;" parent="1" vertex="1">
          <mxGeometry x="480" y="280" width="180" height="40" as="geometry" />
        </mxCell>
        <mxCell id="ZLyVGKCCBGNe5Eu13ANb-21" value="Check wishlist" style="ellipse;whiteSpace=wrap;html=1;fillColor=#99FFFF;" parent="1" vertex="1">
          <mxGeometry x="480" y="330" width="180" height="40" as="geometry" />
        </mxCell>
        <mxCell id="ZLyVGKCCBGNe5Eu13ANb-22" value="Browse Product" style="ellipse;whiteSpace=wrap;html=1;fillColor=#99FFFF;" parent="1" vertex="1">
          <mxGeometry x="480" y="30" width="180" height="40" as="geometry" />
        </mxCell>
        <mxCell id="ZLyVGKCCBGNe5Eu13ANb-23" value="Add item" style="ellipse;whiteSpace=wrap;html=1;fillColor=#99FFCC;" parent="1" vertex="1">
          <mxGeometry x="480" y="430" width="180" height="40" as="geometry" />
        </mxCell>
        <mxCell id="ZLyVGKCCBGNe5Eu13ANb-24" value="delete item" style="ellipse;whiteSpace=wrap;html=1;fillColor=#99FFCC;" parent="1" vertex="1">
          <mxGeometry x="480" y="540" width="180" height="40" as="geometry" />
        </mxCell>
        <mxCell id="ZLyVGKCCBGNe5Eu13ANb-25" value="" style="endArrow=classic;html=1;rounded=0;entryX=0;entryY=0.5;entryDx=0;entryDy=0;" parent="1" target="ZLyVGKCCBGNe5Eu13ANb-6" edge="1">
          <mxGeometry width="50" height="50" relative="1" as="geometry">
            <mxPoint x="90" y="140" as="sourcePoint" />
            <mxPoint x="540" y="130" as="targetPoint" />
          </mxGeometry>
        </mxCell>
        <mxCell id="ZLyVGKCCBGNe5Eu13ANb-27" value="" style="endArrow=classic;html=1;rounded=0;entryX=1;entryY=1;entryDx=0;entryDy=0;" parent="1" source="ZLyVGKCCBGNe5Eu13ANb-4" target="ZLyVGKCCBGNe5Eu13ANb-6" edge="1">
          <mxGeometry width="50" height="50" relative="1" as="geometry">
            <mxPoint x="490" y="390" as="sourcePoint" />
            <mxPoint x="580" y="-90" as="targetPoint" />
          </mxGeometry>
        </mxCell>
        <mxCell id="ZLyVGKCCBGNe5Eu13ANb-29" value="" style="endArrow=classic;html=1;rounded=0;entryX=0.957;entryY=0.571;entryDx=0;entryDy=0;entryPerimeter=0;" parent="1" target="ZLyVGKCCBGNe5Eu13ANb-6" edge="1">
          <mxGeometry width="50" height="50" relative="1" as="geometry">
            <mxPoint x="850" y="130" as="sourcePoint" />
            <mxPoint x="580" y="90" as="targetPoint" />
          </mxGeometry>
        </mxCell>
        <mxCell id="ZLyVGKCCBGNe5Eu13ANb-30" value="" style="endArrow=classic;html=1;rounded=0;entryX=0;entryY=0.5;entryDx=0;entryDy=0;" parent="1" target="ZLyVGKCCBGNe5Eu13ANb-7" edge="1">
          <mxGeometry width="50" height="50" relative="1" as="geometry">
            <mxPoint x="70" y="190" as="sourcePoint" />
            <mxPoint x="580" y="470" as="targetPoint" />
          </mxGeometry>
        </mxCell>
        <mxCell id="ZLyVGKCCBGNe5Eu13ANb-31" value="" style="endArrow=classic;html=1;rounded=0;entryX=1;entryY=0.5;entryDx=0;entryDy=0;" parent="1" source="ZLyVGKCCBGNe5Eu13ANb-4" target="ZLyVGKCCBGNe5Eu13ANb-7" edge="1">
          <mxGeometry width="50" height="50" relative="1" as="geometry">
            <mxPoint x="280" y="480" as="sourcePoint" />
            <mxPoint x="330" y="430" as="targetPoint" />
          </mxGeometry>
        </mxCell>
        <mxCell id="ZLyVGKCCBGNe5Eu13ANb-32" value="" style="endArrow=classic;html=1;rounded=0;" parent="1" edge="1">
          <mxGeometry width="50" height="50" relative="1" as="geometry">
            <mxPoint x="850" y="140" as="sourcePoint" />
            <mxPoint x="640" y="780" as="targetPoint" />
          </mxGeometry>
        </mxCell>
        <mxCell id="ZLyVGKCCBGNe5Eu13ANb-33" value="" style="endArrow=classic;html=1;rounded=0;exitX=1;exitY=1;exitDx=0;exitDy=0;exitPerimeter=0;entryX=0;entryY=0.5;entryDx=0;entryDy=0;" parent="1" source="ZLyVGKCCBGNe5Eu13ANb-1" target="ZLyVGKCCBGNe5Eu13ANb-11" edge="1">
          <mxGeometry width="50" height="50" relative="1" as="geometry">
            <mxPoint x="510" y="140" as="sourcePoint" />
            <mxPoint x="560" y="90" as="targetPoint" />
          </mxGeometry>
        </mxCell>
        <mxCell id="ZLyVGKCCBGNe5Eu13ANb-34" value="" style="endArrow=classic;html=1;rounded=0;entryX=0;entryY=0.5;entryDx=0;entryDy=0;" parent="1" target="ZLyVGKCCBGNe5Eu13ANb-12" edge="1">
          <mxGeometry width="50" height="50" relative="1" as="geometry">
            <mxPoint x="100" y="160" as="sourcePoint" />
            <mxPoint x="560" y="90" as="targetPoint" />
          </mxGeometry>
        </mxCell>
        <mxCell id="ZLyVGKCCBGNe5Eu13ANb-35" value="" style="endArrow=classic;html=1;rounded=0;entryX=0;entryY=0.5;entryDx=0;entryDy=0;" parent="1" target="ZLyVGKCCBGNe5Eu13ANb-13" edge="1">
          <mxGeometry width="50" height="50" relative="1" as="geometry">
            <mxPoint x="100" y="170" as="sourcePoint" />
            <mxPoint x="560" y="90" as="targetPoint" />
          </mxGeometry>
        </mxCell>
        <mxCell id="ZLyVGKCCBGNe5Eu13ANb-36" value="" style="endArrow=classic;html=1;rounded=0;entryX=0;entryY=0.5;entryDx=0;entryDy=0;" parent="1" target="ZLyVGKCCBGNe5Eu13ANb-14" edge="1">
          <mxGeometry width="50" height="50" relative="1" as="geometry">
            <mxPoint x="100" y="180" as="sourcePoint" />
            <mxPoint x="560" y="90" as="targetPoint" />
          </mxGeometry>
        </mxCell>
        <mxCell id="ZLyVGKCCBGNe5Eu13ANb-37" value="" style="endArrow=classic;html=1;rounded=0;entryX=1;entryY=0.5;entryDx=0;entryDy=0;" parent="1" target="ZLyVGKCCBGNe5Eu13ANb-22" edge="1">
          <mxGeometry width="50" height="50" relative="1" as="geometry">
            <mxPoint x="840" y="130" as="sourcePoint" />
            <mxPoint x="660" y="150" as="targetPoint" />
          </mxGeometry>
        </mxCell>
        <mxCell id="ZLyVGKCCBGNe5Eu13ANb-38" value="" style="endArrow=classic;html=1;rounded=0;entryX=1;entryY=0.5;entryDx=0;entryDy=0;" parent="1" target="ZLyVGKCCBGNe5Eu13ANb-16" edge="1">
          <mxGeometry width="50" height="50" relative="1" as="geometry">
            <mxPoint x="840" y="140" as="sourcePoint" />
            <mxPoint x="660" y="150" as="targetPoint" />
          </mxGeometry>
        </mxCell>
        <mxCell id="ZLyVGKCCBGNe5Eu13ANb-39" value="" style="endArrow=classic;html=1;rounded=0;" parent="1" edge="1">
          <mxGeometry width="50" height="50" relative="1" as="geometry">
            <mxPoint x="830" y="150" as="sourcePoint" />
            <mxPoint x="660" y="150" as="targetPoint" />
          </mxGeometry>
        </mxCell>
        <mxCell id="ZLyVGKCCBGNe5Eu13ANb-40" value="" style="endArrow=classic;html=1;rounded=0;entryX=1;entryY=0.5;entryDx=0;entryDy=0;" parent="1" target="ZLyVGKCCBGNe5Eu13ANb-17" edge="1">
          <mxGeometry width="50" height="50" relative="1" as="geometry">
            <mxPoint x="830" y="150" as="sourcePoint" />
            <mxPoint x="660" y="150" as="targetPoint" />
          </mxGeometry>
        </mxCell>
        <mxCell id="ZLyVGKCCBGNe5Eu13ANb-41" value="" style="endArrow=classic;html=1;rounded=0;entryX=1;entryY=0.5;entryDx=0;entryDy=0;" parent="1" target="ZLyVGKCCBGNe5Eu13ANb-19" edge="1">
          <mxGeometry width="50" height="50" relative="1" as="geometry">
            <mxPoint x="830" y="160" as="sourcePoint" />
            <mxPoint x="660" y="150" as="targetPoint" />
          </mxGeometry>
        </mxCell>
        <mxCell id="ZLyVGKCCBGNe5Eu13ANb-42" value="" style="endArrow=classic;html=1;rounded=0;entryX=1;entryY=0.5;entryDx=0;entryDy=0;" parent="1" target="ZLyVGKCCBGNe5Eu13ANb-20" edge="1">
          <mxGeometry width="50" height="50" relative="1" as="geometry">
            <mxPoint x="830" y="160" as="sourcePoint" />
            <mxPoint x="660" y="150" as="targetPoint" />
          </mxGeometry>
        </mxCell>
        <mxCell id="ZLyVGKCCBGNe5Eu13ANb-43" value="" style="endArrow=classic;html=1;rounded=0;entryX=1;entryY=0.5;entryDx=0;entryDy=0;" parent="1" target="ZLyVGKCCBGNe5Eu13ANb-21" edge="1">
          <mxGeometry width="50" height="50" relative="1" as="geometry">
            <mxPoint x="840" y="160" as="sourcePoint" />
            <mxPoint x="660" y="150" as="targetPoint" />
          </mxGeometry>
        </mxCell>
        <mxCell id="ZLyVGKCCBGNe5Eu13ANb-44" value="" style="endArrow=classic;html=1;rounded=0;entryX=1;entryY=0.5;entryDx=0;entryDy=0;" parent="1" source="ZLyVGKCCBGNe5Eu13ANb-4" target="ZLyVGKCCBGNe5Eu13ANb-23" edge="1">
          <mxGeometry width="50" height="50" relative="1" as="geometry">
            <mxPoint x="610" y="510" as="sourcePoint" />
            <mxPoint x="660" y="460" as="targetPoint" />
          </mxGeometry>
        </mxCell>
        <mxCell id="ZLyVGKCCBGNe5Eu13ANb-45" value="modify item" style="ellipse;whiteSpace=wrap;html=1;fillColor=#99FFCC;" parent="1" vertex="1">
          <mxGeometry x="480" y="480" width="180" height="40" as="geometry" />
        </mxCell>
        <mxCell id="ZLyVGKCCBGNe5Eu13ANb-47" value="list items&amp;nbsp;" style="ellipse;whiteSpace=wrap;html=1;fillColor=#99FFCC;" parent="1" vertex="1">
          <mxGeometry x="480" y="600" width="180" height="40" as="geometry" />
        </mxCell>
        <mxCell id="ZLyVGKCCBGNe5Eu13ANb-48" value="" style="endArrow=classic;html=1;rounded=0;entryX=1;entryY=0.5;entryDx=0;entryDy=0;" parent="1" source="ZLyVGKCCBGNe5Eu13ANb-4" target="ZLyVGKCCBGNe5Eu13ANb-45" edge="1">
          <mxGeometry width="50" height="50" relative="1" as="geometry">
            <mxPoint x="610" y="470" as="sourcePoint" />
            <mxPoint x="660" y="420" as="targetPoint" />
          </mxGeometry>
        </mxCell>
        <mxCell id="ZLyVGKCCBGNe5Eu13ANb-49" value="" style="endArrow=classic;html=1;rounded=0;entryX=1;entryY=0.5;entryDx=0;entryDy=0;" parent="1" target="ZLyVGKCCBGNe5Eu13ANb-24" edge="1">
          <mxGeometry width="50" height="50" relative="1" as="geometry">
            <mxPoint x="900" y="420" as="sourcePoint" />
            <mxPoint x="660" y="420" as="targetPoint" />
          </mxGeometry>
        </mxCell>
        <mxCell id="ZLyVGKCCBGNe5Eu13ANb-50" value="" style="endArrow=classic;html=1;rounded=0;entryX=1;entryY=0.5;entryDx=0;entryDy=0;" parent="1" target="ZLyVGKCCBGNe5Eu13ANb-47" edge="1">
          <mxGeometry width="50" height="50" relative="1" as="geometry">
            <mxPoint x="900" y="430" as="sourcePoint" />
            <mxPoint x="660" y="420" as="targetPoint" />
          </mxGeometry>
        </mxCell>
        <mxCell id="N-vdITuaXZbwvD52uM81-3" value="Block seller" style="ellipse;whiteSpace=wrap;html=1;fillColor=#99CCFF;" parent="1" vertex="1">
          <mxGeometry x="190" y="300" width="180" height="40" as="geometry" />
        </mxCell>
        <mxCell id="N-vdITuaXZbwvD52uM81-4" value="" style="endArrow=classic;html=1;rounded=0;entryX=0;entryY=0.5;entryDx=0;entryDy=0;" parent="1" target="N-vdITuaXZbwvD52uM81-3" edge="1">
          <mxGeometry width="50" height="50" relative="1" as="geometry">
            <mxPoint x="80" y="190" as="sourcePoint" />
            <mxPoint x="430" y="200" as="targetPoint" />
          </mxGeometry>
        </mxCell>
        <mxCell id="v6_NGK3nHxJqWe2oys9s-2" value="" style="endArrow=none;html=1;rounded=0;" edge="1" parent="1">
          <mxGeometry width="50" height="50" relative="1" as="geometry">
            <mxPoint x="120" y="-200" as="sourcePoint" />
            <mxPoint x="800" y="-200" as="targetPoint" />
          </mxGeometry>
        </mxCell>
        <mxCell id="v6_NGK3nHxJqWe2oys9s-3" value="" style="endArrow=none;html=1;rounded=0;" edge="1" parent="1">
          <mxGeometry width="50" height="50" relative="1" as="geometry">
            <mxPoint x="120" y="880" as="sourcePoint" />
            <mxPoint x="800" y="880.666748046875" as="targetPoint" />
          </mxGeometry>
        </mxCell>
        <mxCell id="v6_NGK3nHxJqWe2oys9s-4" value="" style="endArrow=none;html=1;rounded=0;" edge="1" parent="1">
          <mxGeometry width="50" height="50" relative="1" as="geometry">
            <mxPoint x="800" y="881.3333740234375" as="sourcePoint" />
            <mxPoint x="800" y="-200" as="targetPoint" />
          </mxGeometry>
        </mxCell>
        <mxCell id="v6_NGK3nHxJqWe2oys9s-5" value="" style="endArrow=none;html=1;rounded=0;" edge="1" parent="1">
          <mxGeometry width="50" height="50" relative="1" as="geometry">
            <mxPoint x="120" y="880" as="sourcePoint" />
            <mxPoint x="120" y="-200" as="targetPoint" />
          </mxGeometry>
        </mxCell>
      </root>
    </mxGraphModel>
  </diagram>
</mxfile>
